<svg version="1" xmlns="http://www.w3.org/2000/svg" width="346.667" height="346.667" viewBox="0 0 260.000000 260.000000"><path d="M0 130v130h260V0H0v130zm96.8-92.3c8.1 6.9 10.1 9 9.7 10.7-.3 1.2-2.8 17.2-5.6 35.6-2.8 18.4-5.9 38.7-6.8 45-1 6.3-1.8 11.6-1.7 11.7.1.2 48.7-57 51.3-60.4 1.5-2 3.1-1.1 12.3 7.4l6.4 6-1.9 2.6c-6 7.9-72.2 85.6-73 85.6-1.2.1-16-11.5-18.6-14.5-1.5-1.8-1.1-5.3 5.2-48.9 3.7-25.8 6.7-47.1 6.5-47.2-.2-.2-11.1 12.4-24.2 27.9-13.1 15.6-24.8 29.4-26 30.7l-2.1 2.4-5.4-4c-3-2.3-7.1-5.6-9.1-7.4l-3.7-3.4 37.5-44.3C68.2 48.9 85.4 29 85.8 29c.5 0 5.4 3.9 11 8.7zm84.1 70.9c2.8 2.5 5.1 5 5.1 5.5s-7.2 19.2-16 41.6c-8.8 22.4-15.9 41-15.8 41.3.2.4 14.9-8.1 32.8-18.7s35.3-21 38.8-22.9l6.2-3.6 4.4 3.6c9.4 7.7 13.1 11.5 12.1 12.4-1.2 1.1-105.3 61.2-106 61.2-1.4 0-18.5-14.1-18.5-15.2 0-.8 39.4-104.9 42.6-112.6l1.4-3.4 3.9 3.1c2.1 1.7 6.2 5.1 9 7.7z"/></svg>